<?xml version="1.0" standalone="no"?>
<svg xmlns="http://www.w3.org/2000/svg" version="1.1" width="255" height="255">
	<!-- Created with https://api.qrserver.com (QR Code API, see goQR.me/api for information) -->
	<title>QR Code</title>
	<desc>BEGIN:VCARD
N:Leclanche;Jerome;;;
ADR;DOM;PARCEL;HOME:;;;Stockholm;;;Sweden
EMAIL;INTERNET:jerome@leclan.ch
TEL;CELL:+46725446991
URL:https://leclan.ch
END:VCARD</desc>
	<rect style="fill:rgb(255, 255, 255);fill-opacity:1" x="0" y="0" width="255" height="255" />
	<g id="elements">
		<path style="fill:rgb(0, 0, 0)" d="M 5,5 l 5,0 0,5 -5,0 z M 10,5 l 5,0 0,5 -5,0 z M 15,5 l 5,0 0,5 -5,0 z M 20,5 l 5,0 0,5 -5,0 z M 25,5 l 5,0 0,5 -5,0 z M 30,5 l 5,0 0,5 -5,0 z M 35,5 l 5,0 0,5 -5,0 z M 50,5 l 5,0 0,5 -5,0 z M 55,5 l 5,0 0,5 -5,0 z M 60,5 l 5,0 0,5 -5,0 z M 65,5 l 5,0 0,5 -5,0 z M 70,5 l 5,0 0,5 -5,0 z M 80,5 l 5,0 0,5 -5,0 z M 85,5 l 5,0 0,5 -5,0 z M 90,5 l 5,0 0,5 -5,0 z M 95,5 l 5,0 0,5 -5,0 z M 100,5 l 5,0 0,5 -5,0 z M 115,5 l 5,0 0,5 -5,0 z M 130,5 l 5,0 0,5 -5,0 z M 145,5 l 5,0 0,5 -5,0 z M 155,5 l 5,0 0,5 -5,0 z M 165,5 l 5,0 0,5 -5,0 z M 175,5 l 5,0 0,5 -5,0 z M 185,5 l 5,0 0,5 -5,0 z M 205,5 l 5,0 0,5 -5,0 z M 215,5 l 5,0 0,5 -5,0 z M 220,5 l 5,0 0,5 -5,0 z M 225,5 l 5,0 0,5 -5,0 z M 230,5 l 5,0 0,5 -5,0 z M 235,5 l 5,0 0,5 -5,0 z M 240,5 l 5,0 0,5 -5,0 z M 245,5 l 5,0 0,5 -5,0 z M 5,10 l 5,0 0,5 -5,0 z M 35,10 l 5,0 0,5 -5,0 z M 45,10 l 5,0 0,5 -5,0 z M 60,10 l 5,0 0,5 -5,0 z M 65,10 l 5,0 0,5 -5,0 z M 80,10 l 5,0 0,5 -5,0 z M 95,10 l 5,0 0,5 -5,0 z M 120,10 l 5,0 0,5 -5,0 z M 125,10 l 5,0 0,5 -5,0 z M 130,10 l 5,0 0,5 -5,0 z M 140,10 l 5,0 0,5 -5,0 z M 145,10 l 5,0 0,5 -5,0 z M 150,10 l 5,0 0,5 -5,0 z M 160,10 l 5,0 0,5 -5,0 z M 170,10 l 5,0 0,5 -5,0 z M 180,10 l 5,0 0,5 -5,0 z M 185,10 l 5,0 0,5 -5,0 z M 190,10 l 5,0 0,5 -5,0 z M 195,10 l 5,0 0,5 -5,0 z M 200,10 l 5,0 0,5 -5,0 z M 205,10 l 5,0 0,5 -5,0 z M 215,10 l 5,0 0,5 -5,0 z M 245,10 l 5,0 0,5 -5,0 z M 5,15 l 5,0 0,5 -5,0 z M 15,15 l 5,0 0,5 -5,0 z M 20,15 l 5,0 0,5 -5,0 z M 25,15 l 5,0 0,5 -5,0 z M 35,15 l 5,0 0,5 -5,0 z M 50,15 l 5,0 0,5 -5,0 z M 60,15 l 5,0 0,5 -5,0 z M 70,15 l 5,0 0,5 -5,0 z M 90,15 l 5,0 0,5 -5,0 z M 95,15 l 5,0 0,5 -5,0 z M 100,15 l 5,0 0,5 -5,0 z M 115,15 l 5,0 0,5 -5,0 z M 120,15 l 5,0 0,5 -5,0 z M 125,15 l 5,0 0,5 -5,0 z M 130,15 l 5,0 0,5 -5,0 z M 145,15 l 5,0 0,5 -5,0 z M 160,15 l 5,0 0,5 -5,0 z M 170,15 l 5,0 0,5 -5,0 z M 180,15 l 5,0 0,5 -5,0 z M 185,15 l 5,0 0,5 -5,0 z M 200,15 l 5,0 0,5 -5,0 z M 205,15 l 5,0 0,5 -5,0 z M 215,15 l 5,0 0,5 -5,0 z M 225,15 l 5,0 0,5 -5,0 z M 230,15 l 5,0 0,5 -5,0 z M 235,15 l 5,0 0,5 -5,0 z M 245,15 l 5,0 0,5 -5,0 z M 5,20 l 5,0 0,5 -5,0 z M 15,20 l 5,0 0,5 -5,0 z M 20,20 l 5,0 0,5 -5,0 z M 25,20 l 5,0 0,5 -5,0 z M 35,20 l 5,0 0,5 -5,0 z M 45,20 l 5,0 0,5 -5,0 z M 55,20 l 5,0 0,5 -5,0 z M 60,20 l 5,0 0,5 -5,0 z M 65,20 l 5,0 0,5 -5,0 z M 80,20 l 5,0 0,5 -5,0 z M 95,20 l 5,0 0,5 -5,0 z M 110,20 l 5,0 0,5 -5,0 z M 115,20 l 5,0 0,5 -5,0 z M 125,20 l 5,0 0,5 -5,0 z M 130,20 l 5,0 0,5 -5,0 z M 140,20 l 5,0 0,5 -5,0 z M 145,20 l 5,0 0,5 -5,0 z M 160,20 l 5,0 0,5 -5,0 z M 170,20 l 5,0 0,5 -5,0 z M 190,20 l 5,0 0,5 -5,0 z M 200,20 l 5,0 0,5 -5,0 z M 215,20 l 5,0 0,5 -5,0 z M 225,20 l 5,0 0,5 -5,0 z M 230,20 l 5,0 0,5 -5,0 z M 235,20 l 5,0 0,5 -5,0 z M 245,20 l 5,0 0,5 -5,0 z M 5,25 l 5,0 0,5 -5,0 z M 15,25 l 5,0 0,5 -5,0 z M 20,25 l 5,0 0,5 -5,0 z M 25,25 l 5,0 0,5 -5,0 z M 35,25 l 5,0 0,5 -5,0 z M 50,25 l 5,0 0,5 -5,0 z M 60,25 l 5,0 0,5 -5,0 z M 70,25 l 5,0 0,5 -5,0 z M 85,25 l 5,0 0,5 -5,0 z M 90,25 l 5,0 0,5 -5,0 z M 95,25 l 5,0 0,5 -5,0 z M 100,25 l 5,0 0,5 -5,0 z M 105,25 l 5,0 0,5 -5,0 z M 115,25 l 5,0 0,5 -5,0 z M 120,25 l 5,0 0,5 -5,0 z M 125,25 l 5,0 0,5 -5,0 z M 130,25 l 5,0 0,5 -5,0 z M 135,25 l 5,0 0,5 -5,0 z M 145,25 l 5,0 0,5 -5,0 z M 165,25 l 5,0 0,5 -5,0 z M 215,25 l 5,0 0,5 -5,0 z M 225,25 l 5,0 0,5 -5,0 z M 230,25 l 5,0 0,5 -5,0 z M 235,25 l 5,0 0,5 -5,0 z M 245,25 l 5,0 0,5 -5,0 z M 5,30 l 5,0 0,5 -5,0 z M 35,30 l 5,0 0,5 -5,0 z M 45,30 l 5,0 0,5 -5,0 z M 50,30 l 5,0 0,5 -5,0 z M 60,30 l 5,0 0,5 -5,0 z M 70,30 l 5,0 0,5 -5,0 z M 75,30 l 5,0 0,5 -5,0 z M 80,30 l 5,0 0,5 -5,0 z M 85,30 l 5,0 0,5 -5,0 z M 90,30 l 5,0 0,5 -5,0 z M 95,30 l 5,0 0,5 -5,0 z M 105,30 l 5,0 0,5 -5,0 z M 115,30 l 5,0 0,5 -5,0 z M 135,30 l 5,0 0,5 -5,0 z M 140,30 l 5,0 0,5 -5,0 z M 155,30 l 5,0 0,5 -5,0 z M 160,30 l 5,0 0,5 -5,0 z M 185,30 l 5,0 0,5 -5,0 z M 195,30 l 5,0 0,5 -5,0 z M 215,30 l 5,0 0,5 -5,0 z M 245,30 l 5,0 0,5 -5,0 z M 5,35 l 5,0 0,5 -5,0 z M 10,35 l 5,0 0,5 -5,0 z M 15,35 l 5,0 0,5 -5,0 z M 20,35 l 5,0 0,5 -5,0 z M 25,35 l 5,0 0,5 -5,0 z M 30,35 l 5,0 0,5 -5,0 z M 35,35 l 5,0 0,5 -5,0 z M 45,35 l 5,0 0,5 -5,0 z M 55,35 l 5,0 0,5 -5,0 z M 65,35 l 5,0 0,5 -5,0 z M 75,35 l 5,0 0,5 -5,0 z M 85,35 l 5,0 0,5 -5,0 z M 95,35 l 5,0 0,5 -5,0 z M 105,35 l 5,0 0,5 -5,0 z M 115,35 l 5,0 0,5 -5,0 z M 125,35 l 5,0 0,5 -5,0 z M 135,35 l 5,0 0,5 -5,0 z M 145,35 l 5,0 0,5 -5,0 z M 155,35 l 5,0 0,5 -5,0 z M 165,35 l 5,0 0,5 -5,0 z M 175,35 l 5,0 0,5 -5,0 z M 185,35 l 5,0 0,5 -5,0 z M 195,35 l 5,0 0,5 -5,0 z M 205,35 l 5,0 0,5 -5,0 z M 215,35 l 5,0 0,5 -5,0 z M 220,35 l 5,0 0,5 -5,0 z M 225,35 l 5,0 0,5 -5,0 z M 230,35 l 5,0 0,5 -5,0 z M 235,35 l 5,0 0,5 -5,0 z M 240,35 l 5,0 0,5 -5,0 z M 245,35 l 5,0 0,5 -5,0 z M 55,40 l 5,0 0,5 -5,0 z M 60,40 l 5,0 0,5 -5,0 z M 65,40 l 5,0 0,5 -5,0 z M 70,40 l 5,0 0,5 -5,0 z M 85,40 l 5,0 0,5 -5,0 z M 95,40 l 5,0 0,5 -5,0 z M 100,40 l 5,0 0,5 -5,0 z M 105,40 l 5,0 0,5 -5,0 z M 110,40 l 5,0 0,5 -5,0 z M 115,40 l 5,0 0,5 -5,0 z M 135,40 l 5,0 0,5 -5,0 z M 140,40 l 5,0 0,5 -5,0 z M 145,40 l 5,0 0,5 -5,0 z M 150,40 l 5,0 0,5 -5,0 z M 155,40 l 5,0 0,5 -5,0 z M 160,40 l 5,0 0,5 -5,0 z M 170,40 l 5,0 0,5 -5,0 z M 200,40 l 5,0 0,5 -5,0 z M 205,40 l 5,0 0,5 -5,0 z M 5,45 l 5,0 0,5 -5,0 z M 10,45 l 5,0 0,5 -5,0 z M 15,45 l 5,0 0,5 -5,0 z M 20,45 l 5,0 0,5 -5,0 z M 25,45 l 5,0 0,5 -5,0 z M 35,45 l 5,0 0,5 -5,0 z M 40,45 l 5,0 0,5 -5,0 z M 45,45 l 5,0 0,5 -5,0 z M 55,45 l 5,0 0,5 -5,0 z M 60,45 l 5,0 0,5 -5,0 z M 65,45 l 5,0 0,5 -5,0 z M 75,45 l 5,0 0,5 -5,0 z M 90,45 l 5,0 0,5 -5,0 z M 105,45 l 5,0 0,5 -5,0 z M 110,45 l 5,0 0,5 -5,0 z M 115,45 l 5,0 0,5 -5,0 z M 120,45 l 5,0 0,5 -5,0 z M 125,45 l 5,0 0,5 -5,0 z M 130,45 l 5,0 0,5 -5,0 z M 135,45 l 5,0 0,5 -5,0 z M 145,45 l 5,0 0,5 -5,0 z M 160,45 l 5,0 0,5 -5,0 z M 175,45 l 5,0 0,5 -5,0 z M 185,45 l 5,0 0,5 -5,0 z M 200,45 l 5,0 0,5 -5,0 z M 205,45 l 5,0 0,5 -5,0 z M 210,45 l 5,0 0,5 -5,0 z M 220,45 l 5,0 0,5 -5,0 z M 230,45 l 5,0 0,5 -5,0 z M 240,45 l 5,0 0,5 -5,0 z M 15,50 l 5,0 0,5 -5,0 z M 25,50 l 5,0 0,5 -5,0 z M 30,50 l 5,0 0,5 -5,0 z M 40,50 l 5,0 0,5 -5,0 z M 45,50 l 5,0 0,5 -5,0 z M 65,50 l 5,0 0,5 -5,0 z M 80,50 l 5,0 0,5 -5,0 z M 85,50 l 5,0 0,5 -5,0 z M 90,50 l 5,0 0,5 -5,0 z M 95,50 l 5,0 0,5 -5,0 z M 105,50 l 5,0 0,5 -5,0 z M 110,50 l 5,0 0,5 -5,0 z M 120,50 l 5,0 0,5 -5,0 z M 125,50 l 5,0 0,5 -5,0 z M 140,50 l 5,0 0,5 -5,0 z M 150,50 l 5,0 0,5 -5,0 z M 165,50 l 5,0 0,5 -5,0 z M 170,50 l 5,0 0,5 -5,0 z M 175,50 l 5,0 0,5 -5,0 z M 180,50 l 5,0 0,5 -5,0 z M 185,50 l 5,0 0,5 -5,0 z M 195,50 l 5,0 0,5 -5,0 z M 200,50 l 5,0 0,5 -5,0 z M 235,50 l 5,0 0,5 -5,0 z M 245,50 l 5,0 0,5 -5,0 z M 15,55 l 5,0 0,5 -5,0 z M 30,55 l 5,0 0,5 -5,0 z M 35,55 l 5,0 0,5 -5,0 z M 50,55 l 5,0 0,5 -5,0 z M 55,55 l 5,0 0,5 -5,0 z M 60,55 l 5,0 0,5 -5,0 z M 70,55 l 5,0 0,5 -5,0 z M 75,55 l 5,0 0,5 -5,0 z M 90,55 l 5,0 0,5 -5,0 z M 115,55 l 5,0 0,5 -5,0 z M 125,55 l 5,0 0,5 -5,0 z M 130,55 l 5,0 0,5 -5,0 z M 135,55 l 5,0 0,5 -5,0 z M 155,55 l 5,0 0,5 -5,0 z M 160,55 l 5,0 0,5 -5,0 z M 170,55 l 5,0 0,5 -5,0 z M 175,55 l 5,0 0,5 -5,0 z M 180,55 l 5,0 0,5 -5,0 z M 185,55 l 5,0 0,5 -5,0 z M 205,55 l 5,0 0,5 -5,0 z M 215,55 l 5,0 0,5 -5,0 z M 225,55 l 5,0 0,5 -5,0 z M 240,55 l 5,0 0,5 -5,0 z M 5,60 l 5,0 0,5 -5,0 z M 10,60 l 5,0 0,5 -5,0 z M 15,60 l 5,0 0,5 -5,0 z M 45,60 l 5,0 0,5 -5,0 z M 55,60 l 5,0 0,5 -5,0 z M 60,60 l 5,0 0,5 -5,0 z M 75,60 l 5,0 0,5 -5,0 z M 110,60 l 5,0 0,5 -5,0 z M 115,60 l 5,0 0,5 -5,0 z M 125,60 l 5,0 0,5 -5,0 z M 130,60 l 5,0 0,5 -5,0 z M 135,60 l 5,0 0,5 -5,0 z M 145,60 l 5,0 0,5 -5,0 z M 165,60 l 5,0 0,5 -5,0 z M 170,60 l 5,0 0,5 -5,0 z M 185,60 l 5,0 0,5 -5,0 z M 190,60 l 5,0 0,5 -5,0 z M 195,60 l 5,0 0,5 -5,0 z M 205,60 l 5,0 0,5 -5,0 z M 215,60 l 5,0 0,5 -5,0 z M 220,60 l 5,0 0,5 -5,0 z M 235,60 l 5,0 0,5 -5,0 z M 5,65 l 5,0 0,5 -5,0 z M 10,65 l 5,0 0,5 -5,0 z M 30,65 l 5,0 0,5 -5,0 z M 35,65 l 5,0 0,5 -5,0 z M 55,65 l 5,0 0,5 -5,0 z M 60,65 l 5,0 0,5 -5,0 z M 65,65 l 5,0 0,5 -5,0 z M 70,65 l 5,0 0,5 -5,0 z M 75,65 l 5,0 0,5 -5,0 z M 90,65 l 5,0 0,5 -5,0 z M 100,65 l 5,0 0,5 -5,0 z M 115,65 l 5,0 0,5 -5,0 z M 120,65 l 5,0 0,5 -5,0 z M 130,65 l 5,0 0,5 -5,0 z M 135,65 l 5,0 0,5 -5,0 z M 140,65 l 5,0 0,5 -5,0 z M 145,65 l 5,0 0,5 -5,0 z M 150,65 l 5,0 0,5 -5,0 z M 160,65 l 5,0 0,5 -5,0 z M 165,65 l 5,0 0,5 -5,0 z M 180,65 l 5,0 0,5 -5,0 z M 195,65 l 5,0 0,5 -5,0 z M 210,65 l 5,0 0,5 -5,0 z M 225,65 l 5,0 0,5 -5,0 z M 230,65 l 5,0 0,5 -5,0 z M 235,65 l 5,0 0,5 -5,0 z M 5,70 l 5,0 0,5 -5,0 z M 10,70 l 5,0 0,5 -5,0 z M 15,70 l 5,0 0,5 -5,0 z M 20,70 l 5,0 0,5 -5,0 z M 25,70 l 5,0 0,5 -5,0 z M 40,70 l 5,0 0,5 -5,0 z M 45,70 l 5,0 0,5 -5,0 z M 50,70 l 5,0 0,5 -5,0 z M 65,70 l 5,0 0,5 -5,0 z M 80,70 l 5,0 0,5 -5,0 z M 95,70 l 5,0 0,5 -5,0 z M 110,70 l 5,0 0,5 -5,0 z M 130,70 l 5,0 0,5 -5,0 z M 135,70 l 5,0 0,5 -5,0 z M 145,70 l 5,0 0,5 -5,0 z M 150,70 l 5,0 0,5 -5,0 z M 155,70 l 5,0 0,5 -5,0 z M 160,70 l 5,0 0,5 -5,0 z M 165,70 l 5,0 0,5 -5,0 z M 170,70 l 5,0 0,5 -5,0 z M 190,70 l 5,0 0,5 -5,0 z M 195,70 l 5,0 0,5 -5,0 z M 200,70 l 5,0 0,5 -5,0 z M 215,70 l 5,0 0,5 -5,0 z M 225,70 l 5,0 0,5 -5,0 z M 245,70 l 5,0 0,5 -5,0 z M 10,75 l 5,0 0,5 -5,0 z M 15,75 l 5,0 0,5 -5,0 z M 25,75 l 5,0 0,5 -5,0 z M 35,75 l 5,0 0,5 -5,0 z M 40,75 l 5,0 0,5 -5,0 z M 45,75 l 5,0 0,5 -5,0 z M 50,75 l 5,0 0,5 -5,0 z M 55,75 l 5,0 0,5 -5,0 z M 60,75 l 5,0 0,5 -5,0 z M 75,75 l 5,0 0,5 -5,0 z M 90,75 l 5,0 0,5 -5,0 z M 95,75 l 5,0 0,5 -5,0 z M 100,75 l 5,0 0,5 -5,0 z M 120,75 l 5,0 0,5 -5,0 z M 125,75 l 5,0 0,5 -5,0 z M 140,75 l 5,0 0,5 -5,0 z M 155,75 l 5,0 0,5 -5,0 z M 165,75 l 5,0 0,5 -5,0 z M 180,75 l 5,0 0,5 -5,0 z M 190,75 l 5,0 0,5 -5,0 z M 200,75 l 5,0 0,5 -5,0 z M 205,75 l 5,0 0,5 -5,0 z M 210,75 l 5,0 0,5 -5,0 z M 215,75 l 5,0 0,5 -5,0 z M 220,75 l 5,0 0,5 -5,0 z M 225,75 l 5,0 0,5 -5,0 z M 230,75 l 5,0 0,5 -5,0 z M 235,75 l 5,0 0,5 -5,0 z M 245,75 l 5,0 0,5 -5,0 z M 20,80 l 5,0 0,5 -5,0 z M 25,80 l 5,0 0,5 -5,0 z M 50,80 l 5,0 0,5 -5,0 z M 55,80 l 5,0 0,5 -5,0 z M 60,80 l 5,0 0,5 -5,0 z M 80,80 l 5,0 0,5 -5,0 z M 95,80 l 5,0 0,5 -5,0 z M 110,80 l 5,0 0,5 -5,0 z M 125,80 l 5,0 0,5 -5,0 z M 130,80 l 5,0 0,5 -5,0 z M 150,80 l 5,0 0,5 -5,0 z M 155,80 l 5,0 0,5 -5,0 z M 180,80 l 5,0 0,5 -5,0 z M 185,80 l 5,0 0,5 -5,0 z M 200,80 l 5,0 0,5 -5,0 z M 205,80 l 5,0 0,5 -5,0 z M 225,80 l 5,0 0,5 -5,0 z M 235,80 l 5,0 0,5 -5,0 z M 240,80 l 5,0 0,5 -5,0 z M 245,80 l 5,0 0,5 -5,0 z M 5,85 l 5,0 0,5 -5,0 z M 15,85 l 5,0 0,5 -5,0 z M 25,85 l 5,0 0,5 -5,0 z M 30,85 l 5,0 0,5 -5,0 z M 35,85 l 5,0 0,5 -5,0 z M 40,85 l 5,0 0,5 -5,0 z M 50,85 l 5,0 0,5 -5,0 z M 55,85 l 5,0 0,5 -5,0 z M 60,85 l 5,0 0,5 -5,0 z M 65,85 l 5,0 0,5 -5,0 z M 85,85 l 5,0 0,5 -5,0 z M 95,85 l 5,0 0,5 -5,0 z M 105,85 l 5,0 0,5 -5,0 z M 120,85 l 5,0 0,5 -5,0 z M 130,85 l 5,0 0,5 -5,0 z M 135,85 l 5,0 0,5 -5,0 z M 145,85 l 5,0 0,5 -5,0 z M 160,85 l 5,0 0,5 -5,0 z M 165,85 l 5,0 0,5 -5,0 z M 170,85 l 5,0 0,5 -5,0 z M 175,85 l 5,0 0,5 -5,0 z M 180,85 l 5,0 0,5 -5,0 z M 185,85 l 5,0 0,5 -5,0 z M 190,85 l 5,0 0,5 -5,0 z M 205,85 l 5,0 0,5 -5,0 z M 225,85 l 5,0 0,5 -5,0 z M 240,85 l 5,0 0,5 -5,0 z M 245,85 l 5,0 0,5 -5,0 z M 10,90 l 5,0 0,5 -5,0 z M 45,90 l 5,0 0,5 -5,0 z M 50,90 l 5,0 0,5 -5,0 z M 75,90 l 5,0 0,5 -5,0 z M 80,90 l 5,0 0,5 -5,0 z M 90,90 l 5,0 0,5 -5,0 z M 95,90 l 5,0 0,5 -5,0 z M 100,90 l 5,0 0,5 -5,0 z M 105,90 l 5,0 0,5 -5,0 z M 110,90 l 5,0 0,5 -5,0 z M 130,90 l 5,0 0,5 -5,0 z M 140,90 l 5,0 0,5 -5,0 z M 155,90 l 5,0 0,5 -5,0 z M 165,90 l 5,0 0,5 -5,0 z M 170,90 l 5,0 0,5 -5,0 z M 175,90 l 5,0 0,5 -5,0 z M 180,90 l 5,0 0,5 -5,0 z M 185,90 l 5,0 0,5 -5,0 z M 190,90 l 5,0 0,5 -5,0 z M 200,90 l 5,0 0,5 -5,0 z M 205,90 l 5,0 0,5 -5,0 z M 230,90 l 5,0 0,5 -5,0 z M 235,90 l 5,0 0,5 -5,0 z M 245,90 l 5,0 0,5 -5,0 z M 5,95 l 5,0 0,5 -5,0 z M 15,95 l 5,0 0,5 -5,0 z M 25,95 l 5,0 0,5 -5,0 z M 35,95 l 5,0 0,5 -5,0 z M 50,95 l 5,0 0,5 -5,0 z M 55,95 l 5,0 0,5 -5,0 z M 65,95 l 5,0 0,5 -5,0 z M 85,95 l 5,0 0,5 -5,0 z M 95,95 l 5,0 0,5 -5,0 z M 105,95 l 5,0 0,5 -5,0 z M 115,95 l 5,0 0,5 -5,0 z M 120,95 l 5,0 0,5 -5,0 z M 140,95 l 5,0 0,5 -5,0 z M 145,95 l 5,0 0,5 -5,0 z M 150,95 l 5,0 0,5 -5,0 z M 155,95 l 5,0 0,5 -5,0 z M 160,95 l 5,0 0,5 -5,0 z M 170,95 l 5,0 0,5 -5,0 z M 180,95 l 5,0 0,5 -5,0 z M 185,95 l 5,0 0,5 -5,0 z M 195,95 l 5,0 0,5 -5,0 z M 210,95 l 5,0 0,5 -5,0 z M 215,95 l 5,0 0,5 -5,0 z M 220,95 l 5,0 0,5 -5,0 z M 235,95 l 5,0 0,5 -5,0 z M 240,95 l 5,0 0,5 -5,0 z M 5,100 l 5,0 0,5 -5,0 z M 10,100 l 5,0 0,5 -5,0 z M 15,100 l 5,0 0,5 -5,0 z M 45,100 l 5,0 0,5 -5,0 z M 50,100 l 5,0 0,5 -5,0 z M 60,100 l 5,0 0,5 -5,0 z M 65,100 l 5,0 0,5 -5,0 z M 70,100 l 5,0 0,5 -5,0 z M 85,100 l 5,0 0,5 -5,0 z M 90,100 l 5,0 0,5 -5,0 z M 95,100 l 5,0 0,5 -5,0 z M 100,100 l 5,0 0,5 -5,0 z M 110,100 l 5,0 0,5 -5,0 z M 115,100 l 5,0 0,5 -5,0 z M 120,100 l 5,0 0,5 -5,0 z M 130,100 l 5,0 0,5 -5,0 z M 135,100 l 5,0 0,5 -5,0 z M 145,100 l 5,0 0,5 -5,0 z M 155,100 l 5,0 0,5 -5,0 z M 160,100 l 5,0 0,5 -5,0 z M 185,100 l 5,0 0,5 -5,0 z M 200,100 l 5,0 0,5 -5,0 z M 235,100 l 5,0 0,5 -5,0 z M 245,100 l 5,0 0,5 -5,0 z M 10,105 l 5,0 0,5 -5,0 z M 35,105 l 5,0 0,5 -5,0 z M 45,105 l 5,0 0,5 -5,0 z M 50,105 l 5,0 0,5 -5,0 z M 55,105 l 5,0 0,5 -5,0 z M 60,105 l 5,0 0,5 -5,0 z M 80,105 l 5,0 0,5 -5,0 z M 95,105 l 5,0 0,5 -5,0 z M 115,105 l 5,0 0,5 -5,0 z M 120,105 l 5,0 0,5 -5,0 z M 135,105 l 5,0 0,5 -5,0 z M 140,105 l 5,0 0,5 -5,0 z M 145,105 l 5,0 0,5 -5,0 z M 170,105 l 5,0 0,5 -5,0 z M 180,105 l 5,0 0,5 -5,0 z M 195,105 l 5,0 0,5 -5,0 z M 210,105 l 5,0 0,5 -5,0 z M 215,105 l 5,0 0,5 -5,0 z M 225,105 l 5,0 0,5 -5,0 z M 235,105 l 5,0 0,5 -5,0 z M 20,110 l 5,0 0,5 -5,0 z M 30,110 l 5,0 0,5 -5,0 z M 55,110 l 5,0 0,5 -5,0 z M 60,110 l 5,0 0,5 -5,0 z M 70,110 l 5,0 0,5 -5,0 z M 85,110 l 5,0 0,5 -5,0 z M 90,110 l 5,0 0,5 -5,0 z M 95,110 l 5,0 0,5 -5,0 z M 100,110 l 5,0 0,5 -5,0 z M 105,110 l 5,0 0,5 -5,0 z M 115,110 l 5,0 0,5 -5,0 z M 130,110 l 5,0 0,5 -5,0 z M 135,110 l 5,0 0,5 -5,0 z M 145,110 l 5,0 0,5 -5,0 z M 155,110 l 5,0 0,5 -5,0 z M 160,110 l 5,0 0,5 -5,0 z M 170,110 l 5,0 0,5 -5,0 z M 175,110 l 5,0 0,5 -5,0 z M 195,110 l 5,0 0,5 -5,0 z M 205,110 l 5,0 0,5 -5,0 z M 210,110 l 5,0 0,5 -5,0 z M 215,110 l 5,0 0,5 -5,0 z M 220,110 l 5,0 0,5 -5,0 z M 225,110 l 5,0 0,5 -5,0 z M 230,110 l 5,0 0,5 -5,0 z M 235,110 l 5,0 0,5 -5,0 z M 245,110 l 5,0 0,5 -5,0 z M 5,115 l 5,0 0,5 -5,0 z M 25,115 l 5,0 0,5 -5,0 z M 30,115 l 5,0 0,5 -5,0 z M 35,115 l 5,0 0,5 -5,0 z M 40,115 l 5,0 0,5 -5,0 z M 45,115 l 5,0 0,5 -5,0 z M 50,115 l 5,0 0,5 -5,0 z M 60,115 l 5,0 0,5 -5,0 z M 65,115 l 5,0 0,5 -5,0 z M 75,115 l 5,0 0,5 -5,0 z M 80,115 l 5,0 0,5 -5,0 z M 85,115 l 5,0 0,5 -5,0 z M 90,115 l 5,0 0,5 -5,0 z M 95,115 l 5,0 0,5 -5,0 z M 105,115 l 5,0 0,5 -5,0 z M 115,115 l 5,0 0,5 -5,0 z M 120,115 l 5,0 0,5 -5,0 z M 125,115 l 5,0 0,5 -5,0 z M 130,115 l 5,0 0,5 -5,0 z M 135,115 l 5,0 0,5 -5,0 z M 140,115 l 5,0 0,5 -5,0 z M 160,115 l 5,0 0,5 -5,0 z M 165,115 l 5,0 0,5 -5,0 z M 170,115 l 5,0 0,5 -5,0 z M 180,115 l 5,0 0,5 -5,0 z M 190,115 l 5,0 0,5 -5,0 z M 200,115 l 5,0 0,5 -5,0 z M 205,115 l 5,0 0,5 -5,0 z M 210,115 l 5,0 0,5 -5,0 z M 215,115 l 5,0 0,5 -5,0 z M 220,115 l 5,0 0,5 -5,0 z M 225,115 l 5,0 0,5 -5,0 z M 230,115 l 5,0 0,5 -5,0 z M 240,115 l 5,0 0,5 -5,0 z M 10,120 l 5,0 0,5 -5,0 z M 15,120 l 5,0 0,5 -5,0 z M 25,120 l 5,0 0,5 -5,0 z M 45,120 l 5,0 0,5 -5,0 z M 50,120 l 5,0 0,5 -5,0 z M 55,120 l 5,0 0,5 -5,0 z M 65,120 l 5,0 0,5 -5,0 z M 75,120 l 5,0 0,5 -5,0 z M 85,120 l 5,0 0,5 -5,0 z M 95,120 l 5,0 0,5 -5,0 z M 100,120 l 5,0 0,5 -5,0 z M 105,120 l 5,0 0,5 -5,0 z M 110,120 l 5,0 0,5 -5,0 z M 115,120 l 5,0 0,5 -5,0 z M 135,120 l 5,0 0,5 -5,0 z M 140,120 l 5,0 0,5 -5,0 z M 145,120 l 5,0 0,5 -5,0 z M 150,120 l 5,0 0,5 -5,0 z M 155,120 l 5,0 0,5 -5,0 z M 160,120 l 5,0 0,5 -5,0 z M 165,120 l 5,0 0,5 -5,0 z M 190,120 l 5,0 0,5 -5,0 z M 195,120 l 5,0 0,5 -5,0 z M 200,120 l 5,0 0,5 -5,0 z M 205,120 l 5,0 0,5 -5,0 z M 225,120 l 5,0 0,5 -5,0 z M 235,120 l 5,0 0,5 -5,0 z M 240,120 l 5,0 0,5 -5,0 z M 245,120 l 5,0 0,5 -5,0 z M 10,125 l 5,0 0,5 -5,0 z M 15,125 l 5,0 0,5 -5,0 z M 25,125 l 5,0 0,5 -5,0 z M 35,125 l 5,0 0,5 -5,0 z M 45,125 l 5,0 0,5 -5,0 z M 55,125 l 5,0 0,5 -5,0 z M 60,125 l 5,0 0,5 -5,0 z M 65,125 l 5,0 0,5 -5,0 z M 70,125 l 5,0 0,5 -5,0 z M 75,125 l 5,0 0,5 -5,0 z M 80,125 l 5,0 0,5 -5,0 z M 100,125 l 5,0 0,5 -5,0 z M 115,125 l 5,0 0,5 -5,0 z M 125,125 l 5,0 0,5 -5,0 z M 135,125 l 5,0 0,5 -5,0 z M 140,125 l 5,0 0,5 -5,0 z M 145,125 l 5,0 0,5 -5,0 z M 160,125 l 5,0 0,5 -5,0 z M 165,125 l 5,0 0,5 -5,0 z M 175,125 l 5,0 0,5 -5,0 z M 195,125 l 5,0 0,5 -5,0 z M 200,125 l 5,0 0,5 -5,0 z M 205,125 l 5,0 0,5 -5,0 z M 215,125 l 5,0 0,5 -5,0 z M 225,125 l 5,0 0,5 -5,0 z M 230,125 l 5,0 0,5 -5,0 z M 240,125 l 5,0 0,5 -5,0 z M 245,125 l 5,0 0,5 -5,0 z M 20,130 l 5,0 0,5 -5,0 z M 25,130 l 5,0 0,5 -5,0 z M 45,130 l 5,0 0,5 -5,0 z M 50,130 l 5,0 0,5 -5,0 z M 60,130 l 5,0 0,5 -5,0 z M 70,130 l 5,0 0,5 -5,0 z M 90,130 l 5,0 0,5 -5,0 z M 95,130 l 5,0 0,5 -5,0 z M 100,130 l 5,0 0,5 -5,0 z M 115,130 l 5,0 0,5 -5,0 z M 135,130 l 5,0 0,5 -5,0 z M 140,130 l 5,0 0,5 -5,0 z M 150,130 l 5,0 0,5 -5,0 z M 165,130 l 5,0 0,5 -5,0 z M 185,130 l 5,0 0,5 -5,0 z M 195,130 l 5,0 0,5 -5,0 z M 205,130 l 5,0 0,5 -5,0 z M 225,130 l 5,0 0,5 -5,0 z M 230,130 l 5,0 0,5 -5,0 z M 235,130 l 5,0 0,5 -5,0 z M 240,130 l 5,0 0,5 -5,0 z M 245,130 l 5,0 0,5 -5,0 z M 5,135 l 5,0 0,5 -5,0 z M 15,135 l 5,0 0,5 -5,0 z M 20,135 l 5,0 0,5 -5,0 z M 25,135 l 5,0 0,5 -5,0 z M 30,135 l 5,0 0,5 -5,0 z M 35,135 l 5,0 0,5 -5,0 z M 40,135 l 5,0 0,5 -5,0 z M 45,135 l 5,0 0,5 -5,0 z M 50,135 l 5,0 0,5 -5,0 z M 60,135 l 5,0 0,5 -5,0 z M 70,135 l 5,0 0,5 -5,0 z M 75,135 l 5,0 0,5 -5,0 z M 80,135 l 5,0 0,5 -5,0 z M 85,135 l 5,0 0,5 -5,0 z M 90,135 l 5,0 0,5 -5,0 z M 105,135 l 5,0 0,5 -5,0 z M 110,135 l 5,0 0,5 -5,0 z M 115,135 l 5,0 0,5 -5,0 z M 120,135 l 5,0 0,5 -5,0 z M 125,135 l 5,0 0,5 -5,0 z M 130,135 l 5,0 0,5 -5,0 z M 135,135 l 5,0 0,5 -5,0 z M 170,135 l 5,0 0,5 -5,0 z M 185,135 l 5,0 0,5 -5,0 z M 190,135 l 5,0 0,5 -5,0 z M 205,135 l 5,0 0,5 -5,0 z M 210,135 l 5,0 0,5 -5,0 z M 215,135 l 5,0 0,5 -5,0 z M 220,135 l 5,0 0,5 -5,0 z M 225,135 l 5,0 0,5 -5,0 z M 240,135 l 5,0 0,5 -5,0 z M 10,140 l 5,0 0,5 -5,0 z M 15,140 l 5,0 0,5 -5,0 z M 40,140 l 5,0 0,5 -5,0 z M 50,140 l 5,0 0,5 -5,0 z M 55,140 l 5,0 0,5 -5,0 z M 75,140 l 5,0 0,5 -5,0 z M 80,140 l 5,0 0,5 -5,0 z M 85,140 l 5,0 0,5 -5,0 z M 100,140 l 5,0 0,5 -5,0 z M 110,140 l 5,0 0,5 -5,0 z M 120,140 l 5,0 0,5 -5,0 z M 125,140 l 5,0 0,5 -5,0 z M 135,140 l 5,0 0,5 -5,0 z M 140,140 l 5,0 0,5 -5,0 z M 145,140 l 5,0 0,5 -5,0 z M 155,140 l 5,0 0,5 -5,0 z M 175,140 l 5,0 0,5 -5,0 z M 185,140 l 5,0 0,5 -5,0 z M 195,140 l 5,0 0,5 -5,0 z M 205,140 l 5,0 0,5 -5,0 z M 210,140 l 5,0 0,5 -5,0 z M 215,140 l 5,0 0,5 -5,0 z M 235,140 l 5,0 0,5 -5,0 z M 245,140 l 5,0 0,5 -5,0 z M 10,145 l 5,0 0,5 -5,0 z M 30,145 l 5,0 0,5 -5,0 z M 35,145 l 5,0 0,5 -5,0 z M 40,145 l 5,0 0,5 -5,0 z M 45,145 l 5,0 0,5 -5,0 z M 50,145 l 5,0 0,5 -5,0 z M 60,145 l 5,0 0,5 -5,0 z M 65,145 l 5,0 0,5 -5,0 z M 70,145 l 5,0 0,5 -5,0 z M 75,145 l 5,0 0,5 -5,0 z M 90,145 l 5,0 0,5 -5,0 z M 100,145 l 5,0 0,5 -5,0 z M 120,145 l 5,0 0,5 -5,0 z M 125,145 l 5,0 0,5 -5,0 z M 130,145 l 5,0 0,5 -5,0 z M 140,145 l 5,0 0,5 -5,0 z M 145,145 l 5,0 0,5 -5,0 z M 150,145 l 5,0 0,5 -5,0 z M 170,145 l 5,0 0,5 -5,0 z M 175,145 l 5,0 0,5 -5,0 z M 180,145 l 5,0 0,5 -5,0 z M 190,145 l 5,0 0,5 -5,0 z M 220,145 l 5,0 0,5 -5,0 z M 245,145 l 5,0 0,5 -5,0 z M 5,150 l 5,0 0,5 -5,0 z M 15,150 l 5,0 0,5 -5,0 z M 45,150 l 5,0 0,5 -5,0 z M 60,150 l 5,0 0,5 -5,0 z M 80,150 l 5,0 0,5 -5,0 z M 95,150 l 5,0 0,5 -5,0 z M 115,150 l 5,0 0,5 -5,0 z M 125,150 l 5,0 0,5 -5,0 z M 135,150 l 5,0 0,5 -5,0 z M 145,150 l 5,0 0,5 -5,0 z M 175,150 l 5,0 0,5 -5,0 z M 190,150 l 5,0 0,5 -5,0 z M 200,150 l 5,0 0,5 -5,0 z M 205,150 l 5,0 0,5 -5,0 z M 215,150 l 5,0 0,5 -5,0 z M 230,150 l 5,0 0,5 -5,0 z M 240,150 l 5,0 0,5 -5,0 z M 245,150 l 5,0 0,5 -5,0 z M 15,155 l 5,0 0,5 -5,0 z M 20,155 l 5,0 0,5 -5,0 z M 25,155 l 5,0 0,5 -5,0 z M 30,155 l 5,0 0,5 -5,0 z M 35,155 l 5,0 0,5 -5,0 z M 45,155 l 5,0 0,5 -5,0 z M 50,155 l 5,0 0,5 -5,0 z M 70,155 l 5,0 0,5 -5,0 z M 90,155 l 5,0 0,5 -5,0 z M 95,155 l 5,0 0,5 -5,0 z M 100,155 l 5,0 0,5 -5,0 z M 120,155 l 5,0 0,5 -5,0 z M 125,155 l 5,0 0,5 -5,0 z M 130,155 l 5,0 0,5 -5,0 z M 135,155 l 5,0 0,5 -5,0 z M 140,155 l 5,0 0,5 -5,0 z M 150,155 l 5,0 0,5 -5,0 z M 165,155 l 5,0 0,5 -5,0 z M 180,155 l 5,0 0,5 -5,0 z M 190,155 l 5,0 0,5 -5,0 z M 200,155 l 5,0 0,5 -5,0 z M 205,155 l 5,0 0,5 -5,0 z M 210,155 l 5,0 0,5 -5,0 z M 215,155 l 5,0 0,5 -5,0 z M 230,155 l 5,0 0,5 -5,0 z M 235,155 l 5,0 0,5 -5,0 z M 240,155 l 5,0 0,5 -5,0 z M 10,160 l 5,0 0,5 -5,0 z M 20,160 l 5,0 0,5 -5,0 z M 30,160 l 5,0 0,5 -5,0 z M 40,160 l 5,0 0,5 -5,0 z M 45,160 l 5,0 0,5 -5,0 z M 55,160 l 5,0 0,5 -5,0 z M 80,160 l 5,0 0,5 -5,0 z M 95,160 l 5,0 0,5 -5,0 z M 110,160 l 5,0 0,5 -5,0 z M 115,160 l 5,0 0,5 -5,0 z M 125,160 l 5,0 0,5 -5,0 z M 130,160 l 5,0 0,5 -5,0 z M 135,160 l 5,0 0,5 -5,0 z M 140,160 l 5,0 0,5 -5,0 z M 155,160 l 5,0 0,5 -5,0 z M 160,160 l 5,0 0,5 -5,0 z M 165,160 l 5,0 0,5 -5,0 z M 180,160 l 5,0 0,5 -5,0 z M 195,160 l 5,0 0,5 -5,0 z M 200,160 l 5,0 0,5 -5,0 z M 210,160 l 5,0 0,5 -5,0 z M 235,160 l 5,0 0,5 -5,0 z M 240,160 l 5,0 0,5 -5,0 z M 20,165 l 5,0 0,5 -5,0 z M 25,165 l 5,0 0,5 -5,0 z M 35,165 l 5,0 0,5 -5,0 z M 45,165 l 5,0 0,5 -5,0 z M 50,165 l 5,0 0,5 -5,0 z M 55,165 l 5,0 0,5 -5,0 z M 60,165 l 5,0 0,5 -5,0 z M 65,165 l 5,0 0,5 -5,0 z M 70,165 l 5,0 0,5 -5,0 z M 75,165 l 5,0 0,5 -5,0 z M 90,165 l 5,0 0,5 -5,0 z M 110,165 l 5,0 0,5 -5,0 z M 125,165 l 5,0 0,5 -5,0 z M 135,165 l 5,0 0,5 -5,0 z M 140,165 l 5,0 0,5 -5,0 z M 160,165 l 5,0 0,5 -5,0 z M 165,165 l 5,0 0,5 -5,0 z M 175,165 l 5,0 0,5 -5,0 z M 180,165 l 5,0 0,5 -5,0 z M 185,165 l 5,0 0,5 -5,0 z M 190,165 l 5,0 0,5 -5,0 z M 205,165 l 5,0 0,5 -5,0 z M 220,165 l 5,0 0,5 -5,0 z M 240,165 l 5,0 0,5 -5,0 z M 15,170 l 5,0 0,5 -5,0 z M 25,170 l 5,0 0,5 -5,0 z M 50,170 l 5,0 0,5 -5,0 z M 55,170 l 5,0 0,5 -5,0 z M 60,170 l 5,0 0,5 -5,0 z M 65,170 l 5,0 0,5 -5,0 z M 80,170 l 5,0 0,5 -5,0 z M 95,170 l 5,0 0,5 -5,0 z M 100,170 l 5,0 0,5 -5,0 z M 110,170 l 5,0 0,5 -5,0 z M 115,170 l 5,0 0,5 -5,0 z M 130,170 l 5,0 0,5 -5,0 z M 140,170 l 5,0 0,5 -5,0 z M 145,170 l 5,0 0,5 -5,0 z M 150,170 l 5,0 0,5 -5,0 z M 165,170 l 5,0 0,5 -5,0 z M 180,170 l 5,0 0,5 -5,0 z M 185,170 l 5,0 0,5 -5,0 z M 190,170 l 5,0 0,5 -5,0 z M 195,170 l 5,0 0,5 -5,0 z M 215,170 l 5,0 0,5 -5,0 z M 225,170 l 5,0 0,5 -5,0 z M 235,170 l 5,0 0,5 -5,0 z M 245,170 l 5,0 0,5 -5,0 z M 10,175 l 5,0 0,5 -5,0 z M 25,175 l 5,0 0,5 -5,0 z M 35,175 l 5,0 0,5 -5,0 z M 45,175 l 5,0 0,5 -5,0 z M 55,175 l 5,0 0,5 -5,0 z M 65,175 l 5,0 0,5 -5,0 z M 80,175 l 5,0 0,5 -5,0 z M 95,175 l 5,0 0,5 -5,0 z M 105,175 l 5,0 0,5 -5,0 z M 110,175 l 5,0 0,5 -5,0 z M 135,175 l 5,0 0,5 -5,0 z M 140,175 l 5,0 0,5 -5,0 z M 170,175 l 5,0 0,5 -5,0 z M 185,175 l 5,0 0,5 -5,0 z M 190,175 l 5,0 0,5 -5,0 z M 195,175 l 5,0 0,5 -5,0 z M 205,175 l 5,0 0,5 -5,0 z M 210,175 l 5,0 0,5 -5,0 z M 225,175 l 5,0 0,5 -5,0 z M 40,180 l 5,0 0,5 -5,0 z M 45,180 l 5,0 0,5 -5,0 z M 50,180 l 5,0 0,5 -5,0 z M 60,180 l 5,0 0,5 -5,0 z M 65,180 l 5,0 0,5 -5,0 z M 70,180 l 5,0 0,5 -5,0 z M 90,180 l 5,0 0,5 -5,0 z M 95,180 l 5,0 0,5 -5,0 z M 100,180 l 5,0 0,5 -5,0 z M 110,180 l 5,0 0,5 -5,0 z M 115,180 l 5,0 0,5 -5,0 z M 120,180 l 5,0 0,5 -5,0 z M 125,180 l 5,0 0,5 -5,0 z M 135,180 l 5,0 0,5 -5,0 z M 150,180 l 5,0 0,5 -5,0 z M 155,180 l 5,0 0,5 -5,0 z M 170,180 l 5,0 0,5 -5,0 z M 185,180 l 5,0 0,5 -5,0 z M 190,180 l 5,0 0,5 -5,0 z M 195,180 l 5,0 0,5 -5,0 z M 200,180 l 5,0 0,5 -5,0 z M 205,180 l 5,0 0,5 -5,0 z M 210,180 l 5,0 0,5 -5,0 z M 215,180 l 5,0 0,5 -5,0 z M 230,180 l 5,0 0,5 -5,0 z M 5,185 l 5,0 0,5 -5,0 z M 20,185 l 5,0 0,5 -5,0 z M 35,185 l 5,0 0,5 -5,0 z M 40,185 l 5,0 0,5 -5,0 z M 45,185 l 5,0 0,5 -5,0 z M 65,185 l 5,0 0,5 -5,0 z M 80,185 l 5,0 0,5 -5,0 z M 95,185 l 5,0 0,5 -5,0 z M 110,185 l 5,0 0,5 -5,0 z M 115,185 l 5,0 0,5 -5,0 z M 125,185 l 5,0 0,5 -5,0 z M 130,185 l 5,0 0,5 -5,0 z M 155,185 l 5,0 0,5 -5,0 z M 160,185 l 5,0 0,5 -5,0 z M 165,185 l 5,0 0,5 -5,0 z M 180,185 l 5,0 0,5 -5,0 z M 185,185 l 5,0 0,5 -5,0 z M 200,185 l 5,0 0,5 -5,0 z M 210,185 l 5,0 0,5 -5,0 z M 215,185 l 5,0 0,5 -5,0 z M 220,185 l 5,0 0,5 -5,0 z M 235,185 l 5,0 0,5 -5,0 z M 5,190 l 5,0 0,5 -5,0 z M 10,190 l 5,0 0,5 -5,0 z M 15,190 l 5,0 0,5 -5,0 z M 30,190 l 5,0 0,5 -5,0 z M 50,190 l 5,0 0,5 -5,0 z M 55,190 l 5,0 0,5 -5,0 z M 60,190 l 5,0 0,5 -5,0 z M 70,190 l 5,0 0,5 -5,0 z M 85,190 l 5,0 0,5 -5,0 z M 90,190 l 5,0 0,5 -5,0 z M 95,190 l 5,0 0,5 -5,0 z M 100,190 l 5,0 0,5 -5,0 z M 105,190 l 5,0 0,5 -5,0 z M 110,190 l 5,0 0,5 -5,0 z M 115,190 l 5,0 0,5 -5,0 z M 120,190 l 5,0 0,5 -5,0 z M 135,190 l 5,0 0,5 -5,0 z M 140,190 l 5,0 0,5 -5,0 z M 165,190 l 5,0 0,5 -5,0 z M 170,190 l 5,0 0,5 -5,0 z M 180,190 l 5,0 0,5 -5,0 z M 185,190 l 5,0 0,5 -5,0 z M 195,190 l 5,0 0,5 -5,0 z M 200,190 l 5,0 0,5 -5,0 z M 205,190 l 5,0 0,5 -5,0 z M 220,190 l 5,0 0,5 -5,0 z M 225,190 l 5,0 0,5 -5,0 z M 235,190 l 5,0 0,5 -5,0 z M 240,190 l 5,0 0,5 -5,0 z M 245,190 l 5,0 0,5 -5,0 z M 10,195 l 5,0 0,5 -5,0 z M 30,195 l 5,0 0,5 -5,0 z M 35,195 l 5,0 0,5 -5,0 z M 40,195 l 5,0 0,5 -5,0 z M 55,195 l 5,0 0,5 -5,0 z M 75,195 l 5,0 0,5 -5,0 z M 80,195 l 5,0 0,5 -5,0 z M 85,195 l 5,0 0,5 -5,0 z M 95,195 l 5,0 0,5 -5,0 z M 105,195 l 5,0 0,5 -5,0 z M 155,195 l 5,0 0,5 -5,0 z M 160,195 l 5,0 0,5 -5,0 z M 165,195 l 5,0 0,5 -5,0 z M 190,195 l 5,0 0,5 -5,0 z M 200,195 l 5,0 0,5 -5,0 z M 205,195 l 5,0 0,5 -5,0 z M 210,195 l 5,0 0,5 -5,0 z M 215,195 l 5,0 0,5 -5,0 z M 225,195 l 5,0 0,5 -5,0 z M 230,195 l 5,0 0,5 -5,0 z M 10,200 l 5,0 0,5 -5,0 z M 15,200 l 5,0 0,5 -5,0 z M 20,200 l 5,0 0,5 -5,0 z M 40,200 l 5,0 0,5 -5,0 z M 50,200 l 5,0 0,5 -5,0 z M 55,200 l 5,0 0,5 -5,0 z M 60,200 l 5,0 0,5 -5,0 z M 75,200 l 5,0 0,5 -5,0 z M 85,200 l 5,0 0,5 -5,0 z M 90,200 l 5,0 0,5 -5,0 z M 100,200 l 5,0 0,5 -5,0 z M 105,200 l 5,0 0,5 -5,0 z M 115,200 l 5,0 0,5 -5,0 z M 120,200 l 5,0 0,5 -5,0 z M 130,200 l 5,0 0,5 -5,0 z M 135,200 l 5,0 0,5 -5,0 z M 140,200 l 5,0 0,5 -5,0 z M 145,200 l 5,0 0,5 -5,0 z M 150,200 l 5,0 0,5 -5,0 z M 155,200 l 5,0 0,5 -5,0 z M 165,200 l 5,0 0,5 -5,0 z M 185,200 l 5,0 0,5 -5,0 z M 190,200 l 5,0 0,5 -5,0 z M 195,200 l 5,0 0,5 -5,0 z M 200,200 l 5,0 0,5 -5,0 z M 205,200 l 5,0 0,5 -5,0 z M 215,200 l 5,0 0,5 -5,0 z M 220,200 l 5,0 0,5 -5,0 z M 240,200 l 5,0 0,5 -5,0 z M 245,200 l 5,0 0,5 -5,0 z M 5,205 l 5,0 0,5 -5,0 z M 10,205 l 5,0 0,5 -5,0 z M 15,205 l 5,0 0,5 -5,0 z M 35,205 l 5,0 0,5 -5,0 z M 50,205 l 5,0 0,5 -5,0 z M 55,205 l 5,0 0,5 -5,0 z M 60,205 l 5,0 0,5 -5,0 z M 65,205 l 5,0 0,5 -5,0 z M 70,205 l 5,0 0,5 -5,0 z M 75,205 l 5,0 0,5 -5,0 z M 85,205 l 5,0 0,5 -5,0 z M 100,205 l 5,0 0,5 -5,0 z M 115,205 l 5,0 0,5 -5,0 z M 120,205 l 5,0 0,5 -5,0 z M 125,205 l 5,0 0,5 -5,0 z M 130,205 l 5,0 0,5 -5,0 z M 135,205 l 5,0 0,5 -5,0 z M 140,205 l 5,0 0,5 -5,0 z M 145,205 l 5,0 0,5 -5,0 z M 165,205 l 5,0 0,5 -5,0 z M 175,205 l 5,0 0,5 -5,0 z M 180,205 l 5,0 0,5 -5,0 z M 185,205 l 5,0 0,5 -5,0 z M 200,205 l 5,0 0,5 -5,0 z M 205,205 l 5,0 0,5 -5,0 z M 210,205 l 5,0 0,5 -5,0 z M 215,205 l 5,0 0,5 -5,0 z M 220,205 l 5,0 0,5 -5,0 z M 225,205 l 5,0 0,5 -5,0 z M 240,205 l 5,0 0,5 -5,0 z M 245,205 l 5,0 0,5 -5,0 z M 45,210 l 5,0 0,5 -5,0 z M 50,210 l 5,0 0,5 -5,0 z M 60,210 l 5,0 0,5 -5,0 z M 75,210 l 5,0 0,5 -5,0 z M 80,210 l 5,0 0,5 -5,0 z M 85,210 l 5,0 0,5 -5,0 z M 90,210 l 5,0 0,5 -5,0 z M 100,210 l 5,0 0,5 -5,0 z M 115,210 l 5,0 0,5 -5,0 z M 135,210 l 5,0 0,5 -5,0 z M 140,210 l 5,0 0,5 -5,0 z M 155,210 l 5,0 0,5 -5,0 z M 160,210 l 5,0 0,5 -5,0 z M 165,210 l 5,0 0,5 -5,0 z M 170,210 l 5,0 0,5 -5,0 z M 180,210 l 5,0 0,5 -5,0 z M 190,210 l 5,0 0,5 -5,0 z M 195,210 l 5,0 0,5 -5,0 z M 200,210 l 5,0 0,5 -5,0 z M 205,210 l 5,0 0,5 -5,0 z M 225,210 l 5,0 0,5 -5,0 z M 245,210 l 5,0 0,5 -5,0 z M 5,215 l 5,0 0,5 -5,0 z M 10,215 l 5,0 0,5 -5,0 z M 15,215 l 5,0 0,5 -5,0 z M 20,215 l 5,0 0,5 -5,0 z M 25,215 l 5,0 0,5 -5,0 z M 30,215 l 5,0 0,5 -5,0 z M 35,215 l 5,0 0,5 -5,0 z M 45,215 l 5,0 0,5 -5,0 z M 70,215 l 5,0 0,5 -5,0 z M 75,215 l 5,0 0,5 -5,0 z M 80,215 l 5,0 0,5 -5,0 z M 90,215 l 5,0 0,5 -5,0 z M 105,215 l 5,0 0,5 -5,0 z M 110,215 l 5,0 0,5 -5,0 z M 115,215 l 5,0 0,5 -5,0 z M 125,215 l 5,0 0,5 -5,0 z M 135,215 l 5,0 0,5 -5,0 z M 140,215 l 5,0 0,5 -5,0 z M 150,215 l 5,0 0,5 -5,0 z M 170,215 l 5,0 0,5 -5,0 z M 195,215 l 5,0 0,5 -5,0 z M 200,215 l 5,0 0,5 -5,0 z M 205,215 l 5,0 0,5 -5,0 z M 215,215 l 5,0 0,5 -5,0 z M 225,215 l 5,0 0,5 -5,0 z M 240,215 l 5,0 0,5 -5,0 z M 5,220 l 5,0 0,5 -5,0 z M 35,220 l 5,0 0,5 -5,0 z M 55,220 l 5,0 0,5 -5,0 z M 60,220 l 5,0 0,5 -5,0 z M 75,220 l 5,0 0,5 -5,0 z M 100,220 l 5,0 0,5 -5,0 z M 115,220 l 5,0 0,5 -5,0 z M 135,220 l 5,0 0,5 -5,0 z M 150,220 l 5,0 0,5 -5,0 z M 155,220 l 5,0 0,5 -5,0 z M 170,220 l 5,0 0,5 -5,0 z M 180,220 l 5,0 0,5 -5,0 z M 185,220 l 5,0 0,5 -5,0 z M 195,220 l 5,0 0,5 -5,0 z M 200,220 l 5,0 0,5 -5,0 z M 205,220 l 5,0 0,5 -5,0 z M 225,220 l 5,0 0,5 -5,0 z M 230,220 l 5,0 0,5 -5,0 z M 5,225 l 5,0 0,5 -5,0 z M 15,225 l 5,0 0,5 -5,0 z M 20,225 l 5,0 0,5 -5,0 z M 25,225 l 5,0 0,5 -5,0 z M 35,225 l 5,0 0,5 -5,0 z M 45,225 l 5,0 0,5 -5,0 z M 55,225 l 5,0 0,5 -5,0 z M 60,225 l 5,0 0,5 -5,0 z M 65,225 l 5,0 0,5 -5,0 z M 70,225 l 5,0 0,5 -5,0 z M 75,225 l 5,0 0,5 -5,0 z M 90,225 l 5,0 0,5 -5,0 z M 100,225 l 5,0 0,5 -5,0 z M 115,225 l 5,0 0,5 -5,0 z M 120,225 l 5,0 0,5 -5,0 z M 125,225 l 5,0 0,5 -5,0 z M 130,225 l 5,0 0,5 -5,0 z M 135,225 l 5,0 0,5 -5,0 z M 145,225 l 5,0 0,5 -5,0 z M 155,225 l 5,0 0,5 -5,0 z M 160,225 l 5,0 0,5 -5,0 z M 175,225 l 5,0 0,5 -5,0 z M 180,225 l 5,0 0,5 -5,0 z M 185,225 l 5,0 0,5 -5,0 z M 190,225 l 5,0 0,5 -5,0 z M 195,225 l 5,0 0,5 -5,0 z M 205,225 l 5,0 0,5 -5,0 z M 210,225 l 5,0 0,5 -5,0 z M 215,225 l 5,0 0,5 -5,0 z M 220,225 l 5,0 0,5 -5,0 z M 225,225 l 5,0 0,5 -5,0 z M 230,225 l 5,0 0,5 -5,0 z M 5,230 l 5,0 0,5 -5,0 z M 15,230 l 5,0 0,5 -5,0 z M 20,230 l 5,0 0,5 -5,0 z M 25,230 l 5,0 0,5 -5,0 z M 35,230 l 5,0 0,5 -5,0 z M 45,230 l 5,0 0,5 -5,0 z M 50,230 l 5,0 0,5 -5,0 z M 65,230 l 5,0 0,5 -5,0 z M 80,230 l 5,0 0,5 -5,0 z M 95,230 l 5,0 0,5 -5,0 z M 110,230 l 5,0 0,5 -5,0 z M 120,230 l 5,0 0,5 -5,0 z M 140,230 l 5,0 0,5 -5,0 z M 150,230 l 5,0 0,5 -5,0 z M 160,230 l 5,0 0,5 -5,0 z M 165,230 l 5,0 0,5 -5,0 z M 175,230 l 5,0 0,5 -5,0 z M 180,230 l 5,0 0,5 -5,0 z M 190,230 l 5,0 0,5 -5,0 z M 195,230 l 5,0 0,5 -5,0 z M 200,230 l 5,0 0,5 -5,0 z M 205,230 l 5,0 0,5 -5,0 z M 235,230 l 5,0 0,5 -5,0 z M 245,230 l 5,0 0,5 -5,0 z M 5,235 l 5,0 0,5 -5,0 z M 15,235 l 5,0 0,5 -5,0 z M 20,235 l 5,0 0,5 -5,0 z M 25,235 l 5,0 0,5 -5,0 z M 35,235 l 5,0 0,5 -5,0 z M 45,235 l 5,0 0,5 -5,0 z M 50,235 l 5,0 0,5 -5,0 z M 55,235 l 5,0 0,5 -5,0 z M 60,235 l 5,0 0,5 -5,0 z M 65,235 l 5,0 0,5 -5,0 z M 70,235 l 5,0 0,5 -5,0 z M 95,235 l 5,0 0,5 -5,0 z M 100,235 l 5,0 0,5 -5,0 z M 150,235 l 5,0 0,5 -5,0 z M 190,235 l 5,0 0,5 -5,0 z M 210,235 l 5,0 0,5 -5,0 z M 220,235 l 5,0 0,5 -5,0 z M 225,235 l 5,0 0,5 -5,0 z M 230,235 l 5,0 0,5 -5,0 z M 245,235 l 5,0 0,5 -5,0 z M 5,240 l 5,0 0,5 -5,0 z M 35,240 l 5,0 0,5 -5,0 z M 45,240 l 5,0 0,5 -5,0 z M 50,240 l 5,0 0,5 -5,0 z M 55,240 l 5,0 0,5 -5,0 z M 65,240 l 5,0 0,5 -5,0 z M 80,240 l 5,0 0,5 -5,0 z M 115,240 l 5,0 0,5 -5,0 z M 140,240 l 5,0 0,5 -5,0 z M 150,240 l 5,0 0,5 -5,0 z M 155,240 l 5,0 0,5 -5,0 z M 160,240 l 5,0 0,5 -5,0 z M 165,240 l 5,0 0,5 -5,0 z M 180,240 l 5,0 0,5 -5,0 z M 185,240 l 5,0 0,5 -5,0 z M 195,240 l 5,0 0,5 -5,0 z M 200,240 l 5,0 0,5 -5,0 z M 215,240 l 5,0 0,5 -5,0 z M 220,240 l 5,0 0,5 -5,0 z M 225,240 l 5,0 0,5 -5,0 z M 235,240 l 5,0 0,5 -5,0 z M 5,245 l 5,0 0,5 -5,0 z M 10,245 l 5,0 0,5 -5,0 z M 15,245 l 5,0 0,5 -5,0 z M 20,245 l 5,0 0,5 -5,0 z M 25,245 l 5,0 0,5 -5,0 z M 30,245 l 5,0 0,5 -5,0 z M 35,245 l 5,0 0,5 -5,0 z M 45,245 l 5,0 0,5 -5,0 z M 50,245 l 5,0 0,5 -5,0 z M 60,245 l 5,0 0,5 -5,0 z M 65,245 l 5,0 0,5 -5,0 z M 70,245 l 5,0 0,5 -5,0 z M 75,245 l 5,0 0,5 -5,0 z M 80,245 l 5,0 0,5 -5,0 z M 95,245 l 5,0 0,5 -5,0 z M 100,245 l 5,0 0,5 -5,0 z M 105,245 l 5,0 0,5 -5,0 z M 120,245 l 5,0 0,5 -5,0 z M 125,245 l 5,0 0,5 -5,0 z M 140,245 l 5,0 0,5 -5,0 z M 145,245 l 5,0 0,5 -5,0 z M 175,245 l 5,0 0,5 -5,0 z M 180,245 l 5,0 0,5 -5,0 z M 195,245 l 5,0 0,5 -5,0 z M 200,245 l 5,0 0,5 -5,0 z M 210,245 l 5,0 0,5 -5,0 z M 215,245 l 5,0 0,5 -5,0 z M 220,245 l 5,0 0,5 -5,0 z M 230,245 l 5,0 0,5 -5,0 z M 245,245 l 5,0 0,5 -5,0 z " />
	</g>
</svg>
